<svg version="1.1" id="facebookLogo" xmlns="http://www.w3.org/2000/svg" xmlns:xlink="http://www.w3.org/1999/xlink" x="0px"
	 y="0px" width="1000px" height="1000px" viewBox="0 0 1000 1000" enable-background="new 0 0 1000 1000" xml:space="preserve">
<g>
	<path fill="#3B5998" d="M1000,166.667C1000,78.889,921.111,0,833.333,0H166.667C78.889,0,0,78.889,0,166.667v666.667
		C0,921.111,78.889,1000,166.667,1000H500V622.223H377.777V455.556H500v-64.444c0-112.223,84.444-213.333,187.777-213.333h134.445
		v166.667H687.777c-14.444,0-32.222,17.778-32.222,44.444v66.667h166.667v166.667H655.556V1000h177.777
		C921.111,1000,1000,921.111,1000,833.333V166.667z"/>
</g>
</svg>
