<svg version="1.1" id="githubLogo" xmlns="http://www.w3.org/2000/svg" xmlns:xlink="http://www.w3.org/1999/xlink" x="0px" y="0px"
	 width="1000px" height="1000px" viewBox="0 0 1000 1000" enable-background="new 0 0 1000 1000" xml:space="preserve">
<g>
	<path fill="#686664" d="M500.094,812.488c-18.751,0-37.502-9.751-56.816-29.064c-7.688-7.688-7.688-20.063,0-27.564
		c7.688-7.688,20.064-7.688,27.564,0c12.001,12.001,21.377,17.813,29.252,17.813c7.688,0,17.251-5.813,29.252-17.626
		c7.688-7.688,20.063-7.688,27.564,0c7.688,7.688,7.688,20.064,0,27.564C537.408,802.737,518.657,812.488,500.094,812.488z
		 M0,513.22c0,48.753,4.125,92.818,12.563,132.57c8.438,39.753,20.063,73.88,35.252,103.132
		c15.188,29.064,34.127,54.566,57.378,76.505c23.064,21.938,48.191,39.939,75.192,54.19s58.128,25.689,93.006,34.502
		c34.877,8.813,70.317,14.813,106.506,18.377c36.19,3.563,75.942,5.25,119.258,5.25s83.255-1.688,119.445-5.25
		c36.377-3.563,71.816-9.563,106.693-18.377c34.878-8.813,66.005-20.251,93.193-34.502c27.189-14.251,52.504-32.252,75.755-54.19
		c23.252-21.939,42.378-47.44,57.566-76.505s27.002-63.379,35.439-103.132c8.438-39.564,12.751-83.817,12.751-132.57
		c0-87.381-27.002-162.573-81.192-225.577c3.188-8.438,5.813-18.001,8.063-28.877c2.251-10.875,4.501-26.251,6.563-45.94
		c2.063-19.876,1.313-42.752-2.25-68.629c-3.563-25.876-10.501-52.315-20.627-79.317l-7.875-1.5
		c-5.251-1.125-13.688-0.75-25.502,1.125c-11.813,1.688-25.689,4.875-41.44,9.376c-15.751,4.5-36.189,13.5-61.129,27.001
		c-25.126,13.313-51.565,30.377-79.317,51.003c-47.253-14.438-112.319-29.439-195.387-29.439s-148.322,15.001-195.762,29.439
		c-27.752-20.626-54.191-37.69-79.505-51.003c-25.127-13.313-45.378-22.501-60.379-27.377c-15.001-4.875-29.064-8.063-42.002-9.375
		c-12.938-1.313-21.189-1.875-24.752-1.313c-3.563,0.563-6.375,1.125-8.063,1.875c-9.938,27.002-16.876,53.441-20.626,79.317
		c-3.75,25.877-4.688,48.753-2.625,68.442c2.063,19.689,4.313,35.065,6.75,46.315c2.438,11.25,5.25,20.814,8.25,28.877
		C27.001,350.459,0,425.651,0,513.22z M133.321,624.414c0-56.629,20.814-108.007,62.441-154.135
		c12.563-14.063,27.001-24.751,43.503-31.877c16.501-7.125,35.252-11.251,56.253-12.376c21.001-1.125,41.065-0.75,60.191,0.563
		s42.753,3.188,70.879,5.626c28.127,2.438,52.504,3.563,72.942,3.563s44.815-1.125,72.942-3.563
		c28.126-2.438,51.753-4.126,70.879-5.626c19.126-1.313,39.19-1.5,60.191-0.563s39.94,5.063,56.441,12.376
		c16.688,7.313,31.314,17.813,43.689,31.877c41.628,46.128,62.441,97.506,62.441,154.135c0,33.189-3.563,62.816-10.5,88.881
		c-6.938,26.063-15.751,47.815-26.252,65.441s-25.502,32.439-44.44,44.628c-19.126,12.188-37.502,21.563-55.503,28.126
		c-17.814,6.563-41.065,11.813-69.192,15.563c-28.314,3.751-53.628,6.001-76.13,6.751c-22.313,0.75-50.628,1.125-84.567,1.125
		s-62.066-0.375-84.381-1.125c-22.313-0.75-47.44-3-75.754-6.751c-28.314-3.75-51.378-8.813-69.192-15.563
		c-17.813-6.563-36.377-15.938-55.503-28.126c-19.126-12.188-33.939-27.002-44.627-44.628
		c-10.501-17.626-19.314-39.378-26.252-65.441C136.883,687.23,133.321,657.604,133.321,624.414z M249.953,593.85
		c0,51.753,27.939,93.756,62.441,93.756s62.441-42.003,62.441-93.756s-27.939-93.756-62.441-93.756S249.953,542.097,249.953,593.85z
		 M624.977,593.85c0,51.753,27.939,93.756,62.441,93.756s62.441-42.003,62.441-93.756s-27.939-93.756-62.441-93.756
		S624.977,542.097,624.977,593.85z"/>
</g>
</svg>
