<?xml version="1.0" encoding="utf-8"?>
<!-- Generator: Adobe Illustrator 16.0.0, SVG Export Plug-In . SVG Version: 6.00 Build 0)  -->
<!DOCTYPE svg PUBLIC "-//W3C//DTD SVG 1.1//EN" "http://www.w3.org/Graphics/SVG/1.1/DTD/svg11.dtd">
<svg version="1.1" id="linkedInLogo" xmlns="http://www.w3.org/2000/svg" xmlns:xlink="http://www.w3.org/1999/xlink" x="0px"
	 y="0px" width="1000px" height="1000px" viewBox="311 0 1000 1000" enable-background="new 311 0 1000 1000" xml:space="preserve">
<g>
	<g>
		<path fill="#0077B5" d="M811,0C534.943,0,311,223.944,311,500c0,276.057,223.943,500,500,500s500-223.943,500-500
			C1311,223.803,1087.057,0,811,0z M686.07,742.254H561V304.648h125.07V742.254z M627.338,277.887
			c-32.395,0-58.592-26.197-58.592-58.591c0-32.395,26.197-58.592,58.592-58.592s58.592,26.338,58.592,58.592
			C686.07,251.69,659.732,277.887,627.338,277.887z M1123.535,742.254h-125.07V471.69c0-31.69-9.014-53.944-48.028-53.944
			c-64.507,0-77.042,53.944-77.042,53.944v270.563h-125.07V304.648h125.07v41.831c17.887-13.662,62.535-41.69,125.07-41.69
			c40.563,0,125.07,24.226,125.07,170.705V742.254z"/>
	</g>
</g>
</svg>
