<?xml version="1.0" encoding="utf-8"?>
<!-- Generator: Adobe Illustrator 16.0.0, SVG Export Plug-In . SVG Version: 6.00 Build 0)  -->
<!DOCTYPE svg PUBLIC "-//W3C//DTD SVG 1.1//EN" "http://www.w3.org/Graphics/SVG/1.1/DTD/svg11.dtd">
<svg version="1.1" id="Layer_1" xmlns="http://www.w3.org/2000/svg" xmlns:xlink="http://www.w3.org/1999/xlink" x="0px" y="0px"
	 width="792.807px" height="633.566px" viewBox="0 0 792.807 633.566" enable-background="new 0 0 792.807 633.566"
	 xml:space="preserve">
<polygon fill="#F1F2F2" points="1.975,387.41 127.292,630.365 144.729,632.833 781.246,246.827 787.069,231.551 637.22,2.035 "/>
<g id="keyboard">
	<defs>
		<rect id="SVGID_1_" width="792.807" height="633.566"/>
	</defs>
	<clipPath id="SVGID_2_">
		<use xlink:href="#SVGID_1_"  overflow="visible"/>
	</clipPath>
	<polygon clip-path="url(#SVGID_2_)" fill="none" stroke="#000000" stroke-width="4" stroke-miterlimit="10" points="
		144.729,632.833 127.292,630.365 1.975,387.41 637.22,2.035 787.07,231.55 781.246,246.827 	"/>
	<path clip-path="url(#SVGID_2_)" fill="#414042" d="M131.809,618.502L39.03,440.054c-0.493-0.948-0.166-2.116,0.748-2.672
		l509.219-308.919c0.948-0.576,2.185-0.283,2.773,0.659L658.168,299.31c0.6,0.959,0.299,2.224-0.668,2.811L134.663,619.301
		C133.659,619.911,132.35,619.543,131.809,618.502"/>
	<path clip-path="url(#SVGID_2_)" fill="#414042" d="M665.231,294.35l-20.134-33.187c-0.754-1.244-0.357-2.863,0.887-3.617
		l28.923-17.547c1.246-0.756,1.641-2.38,0.881-3.624l-18.359-30.053c-0.76-1.244-0.364-2.869,0.882-3.624l32.479-19.704
		c1.218-0.739,2.803-0.375,3.577,0.821l19.132,29.575c0.776,1.199,2.367,1.561,3.586,0.815l30.857-18.89
		c1.224-0.749,2.822-0.38,3.595,0.83l21.054,33.006c0.795,1.246,0.409,2.901-0.854,3.668l-102.889,62.417
		C667.605,295.99,665.985,295.593,665.231,294.35"/>
	<path clip-path="url(#SVGID_2_)" fill="#414042" d="M560.435,121.524l98.911-60.005c1.808-1.097,4.162-0.541,5.289,1.249
		l40.096,63.69c1.152,1.833,0.582,4.255-1.271,5.378l-99.976,60.651c-1.83,1.11-4.213,0.526-5.323-1.303l-39.03-64.337
		C558.021,125.017,558.604,122.634,560.435,121.524"/>
	<path clip-path="url(#SVGID_2_)" fill="#414042" d="M65.914,408.662l-28.947,17.561c-2.164,1.313-4.985,0.583-6.241-1.614
		l-16.046-28.085c-1.21-2.117-0.512-4.814,1.574-6.079l29.113-17.662c2.174-1.318,5.007-0.576,6.255,1.639L67.5,402.605
		C68.692,404.721,67.99,407.402,65.914,408.662"/>
	<path clip-path="url(#SVGID_2_)" fill="#414042" d="M84.673,348.936l129.552-78.593c2.145-1.302,4.941-0.597,6.213,1.566
		l16.882,28.714c1.253,2.131,0.553,4.874-1.569,6.143l-130.207,77.886c-2.153,1.288-4.945,0.566-6.203-1.605l-16.228-28.008
		C81.886,352.919,82.579,350.207,84.673,348.936"/>
	<path clip-path="url(#SVGID_2_)" fill="#414042" d="M236.645,256.742l129.552-78.593c2.145-1.302,4.941-0.597,6.213,1.566
		l17.737,28.195c1.253,2.131-0.821,4.538-2.942,5.807l-129.689,78.741c-2.153,1.288-4.945,0.566-6.203-1.606l-16.228-28.007
		C233.857,260.726,234.55,258.013,236.645,256.742"/>
	<path clip-path="url(#SVGID_2_)" fill="#414042" d="M540.645,120.957l-129.956,78.838c-2.125,1.289-4.892,0.612-6.181-1.513
		l-17.052-28.107c-1.289-2.125-0.611-4.893,1.514-6.182l129.956-78.838c2.124-1.289,4.892-0.612,6.181,1.513l17.051,28.108
		C543.446,116.899,542.77,119.667,540.645,120.957"/>
	<path clip-path="url(#SVGID_2_)" fill="#414042" d="M652.592,53.043l-97.198,58.966c-2.125,1.289-4.894,0.612-6.183-1.513
		L532.16,82.389c-1.289-2.125-0.611-4.893,1.513-6.182l96.809-58.728c2.104-1.277,4.843-0.626,6.148,1.46l17.442,27.869
		C655.404,48.936,654.738,51.741,652.592,53.043"/>
</g>
<g id="key_x5F_sides">
	<defs>
		<rect id="SVGID_3_" width="792.807" height="633.566"/>
	</defs>
	<clipPath id="SVGID_4_">
		<use xlink:href="#SVGID_3_"  overflow="visible"/>
	</clipPath>
	<path clip-path="url(#SVGID_4_)" fill="#BCBEC0" d="M40.61,438.242l21.517-13.053l12.502-3.491l17.731,31.155l-31.349,19.019
		c-0.708,0.43-1.631,0.203-2.06-0.506l-18.845-31.063C39.676,439.594,39.902,438.672,40.61,438.242"/>
	<path clip-path="url(#SVGID_4_)" fill="#BCBEC0" d="M126.061,432.409l-32.168,19.515l-19.111-32.9
		c-0.361-0.62-0.158-1.415,0.456-1.787l21.231-12.88l9.697-2.424c1.691-0.423,3.454,0.351,4.289,1.881L126.061,432.409z"/>
	<path clip-path="url(#SVGID_4_)" fill="#BCBEC0" d="M160.473,411.532l-31.848,19.321l-17.832-30.476
		c-1.129-1.93-0.501-4.408,1.411-5.568l19.532-11.849l8.881-1.865c1.658-0.348,3.348,0.428,4.164,1.912L160.473,411.532z"/>
	<path clip-path="url(#SVGID_4_)" fill="#BCBEC0" d="M194.458,390.915l-31.741,19.257l-17.99-30.973
		c-0.983-1.691-0.43-3.858,1.242-4.873l19.752-11.982l11.416-2.149L194.458,390.915z"/>
	<path clip-path="url(#SVGID_4_)" fill="#BCBEC0" d="M228.443,370.297l-31.955,19.386l-17.228-29.878
		c-1.348-2.338-0.582-5.322,1.725-6.723l19.469-11.811l10.69-1.417L228.443,370.297z"/>
	<path clip-path="url(#SVGID_4_)" fill="#BCBEC0" d="M262.856,349.421l-32.596,19.773l-18.013-29.691
		c-1.319-2.174-0.626-5.006,1.548-6.325l19.972-12.115c0.795-0.482,1.685-0.79,2.608-0.901l6.072-0.735
		c1.255-0.152,2.482,0.445,3.138,1.524L262.856,349.421z"/>
	<path clip-path="url(#SVGID_4_)" fill="#BCBEC0" d="M296.734,328.869l-31.848,19.321l-17.169-28.302
		c-0.588-0.971-0.765-2.136-0.49-3.235l1.106-4.426l20.197-12.253c0.632-0.384,1.349-0.607,2.088-0.649l6.756-0.384
		c1.148-0.065,2.235,0.519,2.813,1.512L296.734,328.869z"/>
	<polygon clip-path="url(#SVGID_4_)" fill="#BCBEC0" points="330.934,308.122 298.659,327.702 280.765,298.205 282.318,291.609
		303.906,278.513 312.65,277.984 	"/>
	<polygon clip-path="url(#SVGID_4_)" fill="#BCBEC0" points="364.705,287.634 333.071,306.825 314.917,276.901 317.158,270.473
		338.64,257.441 346.292,257.282 	"/>
	<polygon clip-path="url(#SVGID_4_)" fill="#BCBEC0" points="399.153,266.736 367.234,286.1 348.864,255.819 351.606,249.575
		373.195,236.478 380.74,236.384 	"/>
	<polygon clip-path="url(#SVGID_4_)" fill="#BCBEC0" points="433.424,245.946 401.29,265.439 383.094,235.444 386.519,228.396
		408.248,215.213 415.184,215.879 	"/>
	<polygon clip-path="url(#SVGID_4_)" fill="#BCBEC0" points="467.408,225.329 435.561,244.65 417.277,214.512 421.216,207.347
		442.876,194.207 449.299,195.476 	"/>
	<polygon clip-path="url(#SVGID_4_)" fill="#BCBEC0" points="501.679,204.539 469.76,223.902 451.908,194.477 456.626,185.865
		477.217,173.374 483.742,174.971 	"/>
	<path clip-path="url(#SVGID_4_)" fill="#BCBEC0" d="M568.556,163.967l-65.31,39.62l-18.239-30.066l4.678-7.712l55.702-33.792
		c0.462-0.28,1.021-0.349,1.538-0.189l4.296,1.329c0.343,0.106,0.637,0.332,0.827,0.636l17.166,27.402
		C569.806,162.142,569.51,163.388,568.556,163.967"/>
	<path clip-path="url(#SVGID_4_)" fill="#BCBEC0" d="M127.958,478.433l-47.706,28.941c-1.178,0.715-2.714,0.317-3.398-0.878
		l-15.785-27.575c-1.398-2.443-0.594-5.556,1.813-7.015l36.392-22.077l11.142-3.324L127.958,478.433z"/>
	<polygon clip-path="url(#SVGID_4_)" fill="#BCBEC0" points="162.797,457.297 130.042,477.169 112.62,445.68 113.38,441.271
		134.594,428.401 145.292,426.151 	"/>
	<polygon clip-path="url(#SVGID_4_)" fill="#BCBEC0" points="196.836,436.648 164.24,456.421 146.746,425.416 148.221,420.134
		168.847,407.622 179.113,404.903 	"/>
	<polygon clip-path="url(#SVGID_4_)" fill="#BCBEC0" points="230.981,415.933 198.6,435.578 180.759,404.123 182.367,399.42
		203.526,386.583 213.431,384.23 	"/>
	<polygon clip-path="url(#SVGID_4_)" fill="#BCBEC0" points="265.074,395.251 232.638,414.928 214.875,383.72 217.046,378.382
		237.78,365.804 247.16,363.914 	"/>
	<polygon clip-path="url(#SVGID_4_)" fill="#BCBEC0" points="299.326,374.471 266.997,394.083 249.265,362.565 251.993,357.18
		272.887,344.505 281.744,343.08 	"/>
	<polygon clip-path="url(#SVGID_4_)" fill="#BCBEC0" points="333.721,353.606 301.232,373.316 283.412,342.214 286.246,336.402
		307.121,323.737 316.191,322.621 	"/>
	<polygon clip-path="url(#SVGID_4_)" fill="#BCBEC0" points="368.276,332.643 335.716,352.396 317.802,321.742 321.299,315.136
		342.033,302.558 350.39,301.874 	"/>
	<polygon clip-path="url(#SVGID_4_)" fill="#BCBEC0" points="402.546,311.853 369.808,331.713 352.171,300.794 355.569,294.346
		377.015,281.336 384.517,281.171 	"/>
	<polygon clip-path="url(#SVGID_4_)" fill="#BCBEC0" points="437.173,290.847 404.612,310.6 386.199,280.248 390.694,273.038
		411.215,260.588 418.674,260.353 	"/>
	<polygon clip-path="url(#SVGID_4_)" fill="#BCBEC0" points="471.442,270.056 439.097,289.679 420.899,259.684 425.25,252.074
		446.055,239.453 452.728,239.207 	"/>
	<polygon clip-path="url(#SVGID_4_)" fill="#BCBEC0" points="505.499,249.396 473.01,269.106 454.424,238.469 459.021,231.587
		480.324,218.663 486.87,218.688 	"/>
	<polygon clip-path="url(#SVGID_4_)" fill="#BCBEC0" points="540.268,228.303 507.636,248.099 489.008,217.391 494.503,210.061
		514.951,197.656 521.283,197.811 	"/>
	<polygon clip-path="url(#SVGID_4_)" fill="#BCBEC0" points="591.566,197.183 541.621,227.482 523.165,197.059 528.772,189.272
		566.891,166.147 573.153,166.831 	"/>
	<path clip-path="url(#SVGID_4_)" fill="#BCBEC0" d="M96.396,541.753l-15.663-28.539c-1.031-1.878-0.399-4.234,1.432-5.344
		l46.242-28.053l9.152-4.676l18.194,33.043l-56.566,34.316C98.213,543.091,96.944,542.751,96.396,541.753"/>
	<path clip-path="url(#SVGID_4_)" fill="#BCBEC0" d="M189.086,486.944l-31.623,20.204L139,474.463l2.304-2.47l20.731-12.581
		l8.422-3.446c0.99-0.405,2.126,0.005,2.629,0.948L189.086,486.944z"/>
	<polygon clip-path="url(#SVGID_4_)" fill="#BCBEC0" points="224.436,466.518 191.662,486.4 174.478,455.182 175.43,451.291
		198.158,437.502 206.318,434.405 	"/>
	<polygon clip-path="url(#SVGID_4_)" fill="#BCBEC0" points="258.136,446.074 225.79,465.697 207.773,433.911 209.558,430.587
		231.858,417.058 239.889,413.746 	"/>
	<polygon clip-path="url(#SVGID_4_)" fill="#BCBEC0" points="292.834,425.025 260.203,444.821 242.057,412.821 244.327,409.494
		266.61,395.975 274.502,393.04 	"/>
	<polygon clip-path="url(#SVGID_4_)" fill="#BCBEC0" points="327.247,404.148 294.758,423.858 276.798,391.842 278.455,388.791
		301.468,374.829 309.203,372.476 	"/>
	<polygon clip-path="url(#SVGID_4_)" fill="#BCBEC0" points="362.158,382.969 329.384,402.851 311.515,371.951 312.511,368.129
		336.949,353.304 343.987,351.569 	"/>
	<polygon clip-path="url(#SVGID_4_)" fill="#BCBEC0" points="396.855,361.919 364.153,381.758 345.87,350.818 346.639,347.426
		371.22,332.514 378.729,331.078 	"/>
	<polygon clip-path="url(#SVGID_4_)" fill="#BCBEC0" points="430.983,341.215 398.353,361.012 380.542,330.368 380.625,326.809
		406.06,311.379 412.383,309.59 	"/>
	<polygon clip-path="url(#SVGID_4_)" fill="#BCBEC0" points="465.609,320.209 432.836,340.091 414.109,309.224 415.606,305.586
		440.686,290.373 446.711,289.057 	"/>
	<polygon clip-path="url(#SVGID_4_)" fill="#BCBEC0" points="500.236,299.203 467.462,319.085 448.736,288.217 450.66,284.321
		475.526,269.236 481.467,268.264 	"/>
	<polygon clip-path="url(#SVGID_4_)" fill="#BCBEC0" points="534.791,278.24 502.16,298.036 483.736,267.667 484.859,263.574
		510.58,247.97 516.108,247.443 	"/>
	<polygon clip-path="url(#SVGID_4_)" fill="#BCBEC0" points="613.021,230.782 536.857,276.987 518.262,246.333 521.054,241.617
		589.023,200.383 594.208,199.771 	"/>
	<path clip-path="url(#SVGID_4_)" fill="#BCBEC0" d="M192.283,533.857l-75.342,45.707c-0.986,0.598-2.272,0.241-2.808-0.78
		l-15.468-29.456c-0.983-1.871-0.34-4.184,1.466-5.279l64.97-39.414l9.269-4.161L192.283,533.857z"/>
	<polygon clip-path="url(#SVGID_4_)" fill="#BCBEC0" points="226.411,513.154 193.637,533.036 176.024,499.665 176.999,497.417
		199.941,483.499 208.399,479.927 	"/>
	<polygon clip-path="url(#SVGID_4_)" fill="#BCBEC0" points="260.752,492.32 227.978,512.202 210.352,479.132 211.198,476.669
		234.211,462.708 242.467,458.967 	"/>
	<polygon clip-path="url(#SVGID_4_)" fill="#BCBEC0" points="295.664,471.141 262.89,491.023 244.439,458.843 245.61,455.792
		269.408,441.357 277.453,438.23 	"/>
	<polygon clip-path="url(#SVGID_4_)" fill="#BCBEC0" points="330.717,449.875 297.873,469.801 279.406,437.434 280.023,434.917
		304.248,420.22 312.13,416.828 	"/>
	<polygon clip-path="url(#SVGID_4_)" fill="#BCBEC0" points="364.934,429.118 332.392,448.86 313.709,416.015 315.113,413.628
		343.701,396.286 347.049,397.106 	"/>
	<polygon clip-path="url(#SVGID_4_)" fill="#BCBEC0" points="399.561,408.111 366.75,428.015 348.513,396.144 349.259,392.915
		373.786,378.036 380.901,375.545 	"/>
	<polygon clip-path="url(#SVGID_4_)" fill="#BCBEC0" points="434.614,386.846 401.93,406.673 383.254,374.484 383.884,371.909
		408.999,356.672 415.657,354.753 	"/>
	<polygon clip-path="url(#SVGID_4_)" fill="#BCBEC0" points="468.92,366.034 436.094,385.949 417.411,353.909 418.351,351
		443.358,335.828 450.424,334.1 	"/>
	<polygon clip-path="url(#SVGID_4_)" fill="#BCBEC0" points="504.135,344.671 470.897,364.834 452.553,333.028 453.03,329.96
		478.733,314.368 485.544,312.941 	"/>
	<polygon clip-path="url(#SVGID_4_)" fill="#BCBEC0" points="538.975,323.536 506.271,343.375 487.33,312.15 488.299,308.565
		516.619,291.384 520.601,292.404 	"/>
	<path clip-path="url(#SVGID_4_)" fill="#BCBEC0" d="M631.811,267.216l-89.603,54.358c-0.999,0.606-2.3,0.287-2.905-0.712
		l-17.277-28.478c-0.249-0.411-0.351-0.894-0.289-1.371l0.255-1.96c0.083-0.637,0.451-1.202,1.001-1.535l87.344-52.987
		c2.554-1.549,5.879-0.735,7.428,1.818l15.392,25.372C634.302,263.61,633.699,266.07,631.811,267.216"/>
	<path clip-path="url(#SVGID_4_)" fill="#BCBEC0" d="M173.913,592.468l-37.556,22.784c-1.484,0.9-3.42,0.347-4.205-1.202
		l-14.592-28.808c-0.961-1.898-0.299-4.216,1.52-5.32l29.265-17.754l6.054-3.672c1.001-0.607,2.21-0.769,3.335-0.445l0.243,0.07
		c0.528,0.152,0.972,0.511,1.231,0.995l15.767,29.469C175.709,589.957,175.242,591.663,173.913,592.468"/>
	<path clip-path="url(#SVGID_4_)" fill="#BCBEC0" d="M219.958,564.535l-42.321,25.674l-17.111-32.031
		c-0.087-0.163-0.138-0.344-0.15-0.527l-0.066-1.048c-0.063-1.002,0.435-1.956,1.294-2.478l34.863-21.148
		c1.477-0.897,3.191-1.327,4.917-1.235l0.675,0.035L219.958,564.535z"/>
	<path clip-path="url(#SVGID_4_)" fill="#BCBEC0" d="M263.402,538.18l-41.573,25.22l-16.361-28.874
		c-1.647-2.906-0.685-6.595,2.17-8.327l35.449-21.505l2.135,0.386L263.402,538.18z"/>
	<path clip-path="url(#SVGID_4_)" fill="#BCBEC0" d="M481.58,405.821L265.272,537.045l-9.067-7.073l-11.012-24.9l0.192-1.772
		l212.998-129.215c1.021-0.619,2.253-0.785,3.4-0.457l1.148,0.329L481.58,405.821z"/>
	<polygon clip-path="url(#SVGID_4_)" fill="#BCBEC0" points="524.686,379.671 483.219,404.828 464.715,373.362 464.899,370.13
		499.525,349.125 505.375,347.038 	"/>
	<polygon clip-path="url(#SVGID_4_)" fill="#BCBEC0" points="568.289,353.219 526.608,378.504 507.245,346.585 507.862,344.067
		545.693,321.116 548.968,321.372 	"/>
	<polygon clip-path="url(#SVGID_4_)" fill="#BCBEC0" points="612.392,326.464 569.999,352.182 550.721,320.405 551.408,317.601
		587.566,295.665 593.33,295.044 	"/>
	<polygon clip-path="url(#SVGID_4_)" fill="#BCBEC0" points="656.636,299.623 614.172,325.384 595.241,294.177 595.974,290.565
		633.236,267.96 637.748,268.488 	"/>
	<path clip-path="url(#SVGID_4_)" fill="#BCBEC0" d="M698.318,274.336l-28.908,17.537c-1.16,0.704-2.671,0.353-3.402-0.79
		l-17.596-27.498c-0.51-0.797-0.725-1.749-0.604-2.688c0.157-1.219,0.86-2.3,1.91-2.937l27.058-16.415
		c0.641-0.388,1.396-0.539,2.136-0.428c0.909,0.137,1.715,0.658,2.212,1.431l18.057,28.052
		C699.995,271.867,699.604,273.556,698.318,274.336"/>
	<polygon clip-path="url(#SVGID_4_)" fill="#BCBEC0" points="736.148,251.386 702.378,271.875 683.424,240.631 683.751,237.314
		713.354,219.355 716.726,220.575 	"/>
	<path clip-path="url(#SVGID_4_)" fill="#BCBEC0" d="M769.316,231.265l-29.018,17.604c-1.3,0.788-2.989,0.399-3.813-0.878
		l-17.137-26.569c-0.681-1.055-0.915-2.337-0.652-3.565c0.273-1.278,1.062-2.387,2.179-3.065l25.911-15.719
		c1.856-1.126,4.271-0.575,5.456,1.244l17.871,27.446C770.886,228.947,770.523,230.533,769.316,231.265"/>
	<path clip-path="url(#SVGID_4_)" fill="#BCBEC0" d="M711.051,218.17l-28.976,17.578c-1.016,0.616-2.326,0.334-2.963-0.639
		l-17.914-27.358c-0.518-0.79-0.586-1.794-0.185-2.664c0.239-0.515,0.628-0.95,1.117-1.247l28.016-16.996
		c0.619-0.375,1.321-0.589,2.041-0.621c1.521-0.067,2.943,0.685,3.721,1.965l16.048,26.453
		C712.686,215.844,712.281,217.424,711.051,218.17"/>
	<path clip-path="url(#SVGID_4_)" fill="#BCBEC0" d="M67.608,406.268L35.12,425.979l-5.878-9.69l-12.382-22.104
		c-0.959-1.711-0.389-3.873,1.288-4.891l18.795-11.403l13.579-2.681L67.608,406.268z"/>
	<path clip-path="url(#SVGID_4_)" fill="#BCBEC0" d="M135.009,365.379l-30.993,18.803l-1.32-1.052l-16.662-30.346
		c-1.076-1.961-0.417-4.421,1.495-5.581l18.097-10.979l11.628-1.393c0.714-0.086,1.409,0.274,1.751,0.907L135.009,365.379z"/>
	<path clip-path="url(#SVGID_4_)" fill="#BCBEC0" d="M168.923,344.806l-30.708,18.629l-1.875-0.521l-16.871-30.702l-0.224-1.084
		c-0.348-1.687,0.403-3.41,1.875-4.303l18.847-11.434l10.766-0.948c0.768-0.068,1.504,0.323,1.879,0.997L168.923,344.806z"/>
	<path clip-path="url(#SVGID_4_)" fill="#BCBEC0" d="M202.944,324.167l-31.313,18.996l-1.776-0.677l-16.078-29.234l-0.577-4.795
		c-0.075-0.62,0.22-1.226,0.754-1.55l19.285-11.7c0.749-0.454,1.6-0.712,2.474-0.751l8.356-0.369
		c0.755-0.033,1.467,0.355,1.849,1.007L202.944,324.167z"/>
	<path clip-path="url(#SVGID_4_)" fill="#BCBEC0" d="M236.751,303.658l-31.919,19.364l-17.283-30.257l0.07-5.324
		c0.008-0.6,0.325-1.154,0.838-1.466l18.773-11.388c0.164-0.099,0.348-0.162,0.539-0.184l10.271-1.158
		c0.816-0.049,1.59,0.371,1.995,1.082L236.751,303.658z"/>
	<polygon clip-path="url(#SVGID_4_)" fill="#BCBEC0" points="287.123,273.099 256.273,291.814 254.54,291.208 237.893,262.32
		239.215,255.182 260.234,242.432 269.911,242.799 	"/>
	<polygon clip-path="url(#SVGID_4_)" fill="#BCBEC0" points="320.324,252.958 289.545,271.629 271.964,241.846 274.138,233.997
		293.873,222.024 303.547,222.491 320.403,251.643 	"/>
	<polygon clip-path="url(#SVGID_4_)" fill="#BCBEC0" points="355.165,231.822 323.104,251.271 305.463,221.23 308.244,213.306
		327.937,201.36 337.228,202.253 	"/>
	<polygon clip-path="url(#SVGID_4_)" fill="#BCBEC0" points="389.435,211.031 357.23,230.568 339.721,200.742 343.01,192.298
		362.7,180.271 371.238,181.037 	"/>
	<polygon clip-path="url(#SVGID_4_)" fill="#BCBEC0" points="440.092,180.3 409.099,199.102 407.24,198.768 389.875,169.34
		394.445,161.012 413.797,149.126 422.11,150.661 	"/>
	<polygon clip-path="url(#SVGID_4_)" fill="#BCBEC0" points="474.362,159.51 443.084,178.485 441.138,178.008 424.506,149.306
		428.812,140.017 448.302,128.339 456.468,130.013 	"/>
	<polygon clip-path="url(#SVGID_4_)" fill="#BCBEC0" points="507.991,139.109 477.141,157.824 475.67,158.132 457.906,128.849
		462.078,119.982 483.239,107.145 489.924,109.327 	"/>
	<path clip-path="url(#SVGID_4_)" fill="#BCBEC0" d="M542.332,118.275l-32.061,19.45l-17.981-29.639l4.913-9.413l20.235-12.276
		c0,0,6.195,1.699,6.183,2C523.608,88.698,542.332,118.275,542.332,118.275"/>
	<path clip-path="url(#SVGID_4_)" fill="#BCBEC0" d="M584.85,92.482c-0.106,0.186-32.329,19.612-32.329,19.612l-18.067-29.781
		l4.416-8.208c0.371-0.689,0.919-1.267,1.588-1.673l20.192-12.249l5.37,2.103L584.85,92.482z"/>
	<polygon clip-path="url(#SVGID_4_)" fill="#BCBEC0" points="619.393,71.581 587.225,91.096 568.769,61.276 572.726,52.856
		596.452,38.463 600.88,41.064 	"/>
	<polygon clip-path="url(#SVGID_4_)" fill="#BCBEC0" points="653.859,50.671 621.156,70.511 602.676,40.048 606.711,32.24
		632.254,16.745 	"/>
	<path clip-path="url(#SVGID_4_)" fill="#BCBEC0" d="M569.551,117.358l20.166-12.234l5.512,2.017l17.957,28.539
		c0.597,0.948,0.301,2.2-0.656,2.78l-29.537,17.919c-1.023,0.62-2.355,0.294-2.977-0.729l-16.602-27.366
		c-0.497-0.82-0.469-1.855,0.07-2.648l4.889-7.162C568.682,118.022,569.083,117.643,569.551,117.358"/>
	<path clip-path="url(#SVGID_4_)" fill="#BCBEC0" d="M604.996,95.855l17.147-10.402c2.571-1.56,5.919-0.787,7.546,1.744
		l17.566,27.327c0.19,0.295,0.297,0.637,0.307,0.988l0.017,0.534c0.021,0.698-0.335,1.354-0.932,1.716l-28.872,17.516
		c-0.421,0.255-0.923,0.342-1.406,0.243c-0.517-0.107-0.969-0.418-1.252-0.864l-17.468-27.441c-0.454-0.713-0.422-1.632,0.081-2.311
		l5.519-7.457C603.723,96.809,604.316,96.268,604.996,95.855"/>
	<path clip-path="url(#SVGID_4_)" fill="#BCBEC0" d="M638.875,75.303l20.252-12.286c1.537-0.932,3.537-0.468,4.507,1.046
		l18.377,28.708c0.242,0.378,0.355,0.825,0.321,1.273l-0.083,1.105c-0.05,0.668-0.419,1.27-0.992,1.618l-29.225,17.729l-2.304-0.26
		L631.84,86.282c-0.509-0.796-0.472-1.825,0.095-2.583l4.886-6.531C637.379,76.42,638.077,75.787,638.875,75.303"/>
	<path clip-path="url(#SVGID_4_)" fill="#BCBEC0" d="M590.563,152.858l19.475-11.814c0.518-0.314,1.107-0.494,1.714-0.522
		l4.292-0.197l17.796,28.707c0.273,0.442,0.371,0.971,0.271,1.482l-0.144,0.742c-0.112,0.57-0.458,1.067-0.955,1.369l-28.582,17.339
		c-0.452,0.274-0.993,0.364-1.51,0.25l-0.811-0.178c-0.549-0.121-1.024-0.462-1.315-0.942l-17.492-28.833l6.543-6.826
		C590.057,153.212,590.299,153.019,590.563,152.858"/>
	<path clip-path="url(#SVGID_4_)" fill="#BCBEC0" d="M668.311,151.211l-29.232,17.734c-0.675,0.409-1.513,0.445-2.22,0.095
		l-0.144-0.071c-0.393-0.194-0.722-0.496-0.949-0.871l-16.88-27.824c-0.427-0.704-0.413-1.591,0.037-2.281l3.617-4.195
		c0.406-0.47,0.883-0.874,1.415-1.197l21.801-13.226l5.562-0.352l17.722,29.212C669.659,149.258,669.333,150.59,668.311,151.211"/>
	<path clip-path="url(#SVGID_4_)" fill="#BCBEC0" d="M703.257,130.01l-29.742,18.043c-0.439,0.267-0.959,0.372-1.468,0.298
		l-0.35-0.052c-0.652-0.096-1.228-0.477-1.569-1.04l-16.284-26.843c-0.758-1.249-0.544-2.857,0.515-3.864l4.132-3.938l3.519-3.352
		c0.206-0.196,0.434-0.367,0.677-0.511l18.281-10.958c0.2-0.12,0.432-0.176,0.664-0.162l2.68,0.164
		c0.483,0.007,0.932,0.257,1.192,0.665l18.4,28.771C704.506,128.174,704.214,129.429,703.257,130.01"/>
</g>
<g id="key_x5F_tops">
	<defs>
		<rect id="SVGID_5_" width="792.807" height="633.566"/>
	</defs>
	<clipPath id="SVGID_6_">
		<use xlink:href="#SVGID_5_"  overflow="visible"/>
	</clipPath>
	<path clip-path="url(#SVGID_6_)" fill="#E6E7E8" d="M286.694,372.729l-18.026,10.935c-0.979,0.596-2.272,0.272-2.872-0.717
		l-14.048-23.158c-0.6-0.988-0.289-2.283,0.69-2.878l18.649-11.313c0.637-0.387,1.949-0.685,2.339-0.041l13.958,24.294
		C287.984,370.839,287.674,372.135,286.694,372.729"/>
	<path clip-path="url(#SVGID_6_)" fill="#E6E7E8" d="M322.425,351.052l-18.524,11.238c-0.784,0.476-1.814,0.224-2.29-0.561
		l-14.501-23.903c-0.475-0.784-0.223-1.813,0.56-2.29l18.525-11.238c0.784-0.475,1.814-0.223,2.289,0.562l14.501,23.904
		C323.461,349.546,323.209,350.578,322.425,351.052"/>
	<path clip-path="url(#SVGID_6_)" fill="#E6E7E8" d="M357.087,330.025l-19.237,11.67c-0.94,0.571-2.177,0.269-2.747-0.672
		l-14.156-23.334c-0.57-0.941-0.268-2.177,0.673-2.747l19.237-11.671c0.94-0.57,2.177-0.267,2.747,0.673l14.156,23.334
		C358.33,328.218,358.027,329.454,357.087,330.025"/>
	<path clip-path="url(#SVGID_6_)" fill="#E6E7E8" d="M391.393,309.213l-18.703,11.346c-0.94,0.571-2.176,0.268-2.747-0.673
		l-14.155-23.333c-0.571-0.941-0.268-2.177,0.672-2.748l18.703-11.346c0.94-0.57,2.177-0.267,2.747,0.673l14.156,23.334
		C392.636,307.406,392.333,308.642,391.393,309.213"/>
	<path clip-path="url(#SVGID_6_)" fill="#E6E7E8" d="M233.822,404.951l19.344-11.735c0.646-0.392,0.854-1.242,0.462-1.889
		l-14.868-24.51c-0.393-0.646-1.243-0.854-1.889-0.462l-19.344,11.735c-0.647,0.392-0.855,1.242-0.462,1.888l14.868,24.511
		C232.325,405.134,233.175,405.342,233.822,404.951"/>
	<path clip-path="url(#SVGID_6_)" fill="#E6E7E8" d="M426.126,288.142l-19.344,11.735c-0.94,0.571-2.177,0.268-2.747-0.673
		l-14.155-23.333c-0.571-0.941-0.268-2.177,0.672-2.748l19.344-11.735c0.939-0.57,2.177-0.267,2.747,0.673l14.155,23.334
		C427.369,286.335,427.066,287.571,426.126,288.142"/>
	<path clip-path="url(#SVGID_6_)" fill="#E6E7E8" d="M461.073,266.941l-19.237,11.67c-0.939,0.571-2.177,0.268-2.747-0.672
		l-14.156-23.334c-0.569-0.941-0.268-2.177,0.674-2.747l19.236-11.671c0.94-0.57,2.178-0.267,2.747,0.673l14.156,23.334
		C462.316,265.134,462.013,266.37,461.073,266.941"/>
	<path clip-path="url(#SVGID_6_)" fill="#E6E7E8" d="M495.485,246.065l-19.557,11.865c-0.94,0.57-2.177,0.268-2.748-0.673
		l-14.155-23.334c-0.57-0.94-0.268-2.176,0.673-2.747l19.558-11.865c0.939-0.57,2.177-0.267,2.747,0.673l14.156,23.334
		C496.729,244.258,496.426,245.494,495.485,246.065"/>
	<path clip-path="url(#SVGID_6_)" fill="#E6E7E8" d="M529.898,225.188l-18.809,11.411c-0.941,0.57-2.178,0.268-2.748-0.673
		l-14.155-23.333c-0.571-0.941-0.269-2.177,0.672-2.748l18.81-11.411c0.94-0.57,2.178-0.267,2.747,0.673l14.156,23.334
		C531.142,223.381,530.838,224.617,529.898,225.188"/>
	<path clip-path="url(#SVGID_6_)" fill="#E6E7E8" d="M581.838,193.679l-36.016,21.849c-0.94,0.571-2.176,0.268-2.747-0.673
		l-14.155-23.333c-0.571-0.941-0.268-2.177,0.672-2.747l36.017-21.85c0.939-0.57,2.177-0.267,2.747,0.673l14.155,23.334
		C583.081,191.872,582.778,193.108,581.838,193.679"/>
	<path clip-path="url(#SVGID_6_)" fill="#E6E7E8" d="M200.051,425.438l18.489-11.216c0.94-0.571,1.243-1.808,0.672-2.748
		l-14.22-23.44c-0.57-0.94-1.807-1.243-2.747-0.673l-18.489,11.217c-0.94,0.57-1.243,1.807-0.673,2.747l14.221,23.44
		C197.874,425.706,199.11,426.009,200.051,425.438"/>
	<path clip-path="url(#SVGID_6_)" fill="#E6E7E8" d="M165.852,446.185l17.58-10.665c0.941-0.571,1.244-1.808,0.673-2.748
		l-14.22-23.44c-0.571-0.939-1.807-1.243-2.748-0.673l-17.58,10.666c-0.94,0.57-1.243,1.806-0.673,2.747l14.221,23.44
		C163.675,446.453,164.912,446.755,165.852,446.185"/>
	<path clip-path="url(#SVGID_6_)" fill="#E6E7E8" d="M131.012,467.321l18.168-11.022c0.941-0.569,1.243-1.807,0.673-2.747
		l-14.22-23.44c-0.571-0.94-1.807-1.243-2.748-0.672l-18.168,11.021c-0.94,0.57-1.243,1.807-0.673,2.747l14.221,23.44
		C128.834,467.588,130.071,467.892,131.012,467.321"/>
	<path clip-path="url(#SVGID_6_)" fill="#E6E7E8" d="M78.354,499.265l35.504-21.539c0.94-0.57,1.243-1.806,0.673-2.747
		l-14.221-23.439c-0.57-0.941-1.807-1.244-2.747-0.674L62.06,472.405c-0.94,0.57-1.243,1.807-0.673,2.747l14.221,23.44
		C76.178,499.533,77.415,499.836,78.354,499.265"/>
	<path clip-path="url(#SVGID_6_)" fill="#E6E7E8" d="M264.996,337.645l18.649-11.314c0.941-0.569,1.243-1.806,0.673-2.746
		l-13.686-22.56c-0.57-0.94-1.807-1.243-2.747-0.672l-18.649,11.313c-0.941,0.571-1.243,1.807-0.673,2.748l13.686,22.558
		C262.819,337.913,264.056,338.216,264.996,337.645"/>
	<path clip-path="url(#SVGID_6_)" fill="#E6E7E8" d="M300.05,316.379l18.649-11.314c0.941-0.57,1.243-1.806,0.673-2.747
		l-13.686-22.559c-0.57-0.94-1.807-1.243-2.747-0.672L284.29,290.4c-0.941,0.571-1.243,1.807-0.673,2.748l13.686,22.558
		C297.873,316.647,299.11,316.951,300.05,316.379"/>
	<path clip-path="url(#SVGID_6_)" fill="#E6E7E8" d="M333.679,295.979l18.649-11.314c0.941-0.57,1.243-1.806,0.673-2.747
		l-13.686-22.559c-0.57-0.94-1.807-1.243-2.747-0.672L317.919,270c-0.941,0.571-1.243,1.807-0.673,2.748l13.686,22.558
		C331.502,296.247,332.739,296.549,333.679,295.979"/>
	<path clip-path="url(#SVGID_6_)" fill="#E6E7E8" d="M368.587,274.801l18.649-11.314c0.941-0.57,1.243-1.806,0.673-2.747
		l-13.686-22.559c-0.57-0.94-1.807-1.243-2.747-0.672l-18.649,11.313c-0.941,0.571-1.243,1.807-0.673,2.748l13.686,22.558
		C366.411,275.069,367.647,275.372,368.587,274.801"/>
	<path clip-path="url(#SVGID_6_)" fill="#E6E7E8" d="M403.858,253.404l18.648-11.314c0.941-0.57,1.243-1.806,0.673-2.747
		l-13.686-22.559c-0.57-0.94-1.807-1.243-2.747-0.672l-18.649,11.313c-0.941,0.571-1.243,1.807-0.673,2.748l13.686,22.558
		C401.681,253.672,402.918,253.975,403.858,253.404"/>
	<path clip-path="url(#SVGID_6_)" fill="#E6E7E8" d="M438.431,232.43l18.649-11.314c0.941-0.57,1.243-1.806,0.673-2.747
		l-13.686-22.559c-0.57-0.94-1.808-1.243-2.747-0.672l-18.649,11.313c-0.94,0.571-1.243,1.807-0.673,2.748l13.686,22.558
		C436.254,232.698,437.491,233.001,438.431,232.43"/>
	<path clip-path="url(#SVGID_6_)" fill="#E6E7E8" d="M473.129,211.38l18.648-11.314c0.941-0.57,1.243-1.806,0.674-2.747
		l-13.687-22.559c-0.57-0.94-1.807-1.243-2.747-0.672l-18.648,11.313c-0.941,0.571-1.243,1.807-0.674,2.748l13.687,22.558
		C470.952,211.648,472.188,211.952,473.129,211.38"/>
	<path clip-path="url(#SVGID_6_)" fill="#E6E7E8" d="M507.096,190.774l54.113-32.828c0.94-0.57,1.243-1.806,0.672-2.747
		l-13.685-22.559c-0.571-0.94-1.808-1.243-2.747-0.672l-54.113,32.827c-0.941,0.571-1.243,1.807-0.673,2.748l13.686,22.558
		C504.919,191.042,506.156,191.345,507.096,190.774"/>
	<path clip-path="url(#SVGID_6_)" fill="#E6E7E8" d="M229.604,359.116l19.415-11.777c0.94-0.571,1.243-1.808,0.673-2.747
		l-13.68-22.551c-0.571-0.94-1.807-1.243-2.748-0.673l-19.415,11.778c-0.94,0.571-1.243,1.807-0.672,2.747l13.68,22.55
		C227.427,359.384,228.664,359.687,229.604,359.116"/>
	<path clip-path="url(#SVGID_6_)" fill="#E6E7E8" d="M195.405,379.863l19.415-11.778c0.94-0.57,1.243-1.807,0.673-2.747
		l-13.68-22.55c-0.571-0.94-1.807-1.244-2.748-0.673l-19.415,11.778c-0.94,0.57-1.243,1.807-0.672,2.747l13.68,22.55
		C193.228,380.13,194.465,380.434,195.405,379.863"/>
	<path clip-path="url(#SVGID_6_)" fill="#E6E7E8" d="M160.886,400.804l19.415-11.778c0.94-0.57,1.243-1.807,0.673-2.747
		l-13.68-22.55c-0.571-0.94-1.807-1.244-2.748-0.673l-19.415,11.778c-0.94,0.57-1.243,1.807-0.672,2.747l13.68,22.55
		C158.708,401.072,159.945,401.375,160.886,400.804"/>
	<path clip-path="url(#SVGID_6_)" fill="#E6E7E8" d="M127.186,421.249L146.6,409.47c0.94-0.57,1.243-1.807,0.673-2.747l-13.68-22.55
		c-0.571-0.94-1.807-1.244-2.748-0.673l-19.415,11.778c-0.94,0.57-1.243,1.807-0.672,2.747l13.68,22.55
		C125.008,421.516,126.245,421.82,127.186,421.249"/>
	<path clip-path="url(#SVGID_6_)" fill="#E6E7E8" d="M91.562,442.86l19.415-11.778c0.94-0.57,1.243-1.807,0.673-2.747l-13.68-22.55
		c-0.571-0.94-1.807-1.244-2.748-0.673L75.807,416.89c-0.94,0.57-1.243,1.807-0.672,2.747l13.68,22.55
		C89.384,443.128,90.622,443.431,91.562,442.86"/>
	<path clip-path="url(#SVGID_6_)" fill="#E6E7E8" d="M56.752,463.977l20.453-12.408c0.94-0.569,1.243-1.807,0.672-2.747
		l-13.68-22.55c-0.57-0.939-1.806-1.243-2.747-0.673l-20.453,12.408c-0.94,0.57-1.243,1.807-0.672,2.747l13.68,22.55
		C54.575,464.246,55.812,464.548,56.752,463.977"/>
	<path clip-path="url(#SVGID_6_)" fill="#E6E7E8" d="M97.389,534.406l44.459-26.971c0.94-0.571,1.236-1.817,0.658-2.771
		l-12.905-23.199c-0.578-0.954-1.821-1.267-2.761-0.696l-45.314,27.489c-0.94,0.571-1.236,1.818-0.658,2.771l13.759,22.681
		C95.206,534.663,96.449,534.977,97.389,534.406"/>
	<path clip-path="url(#SVGID_6_)" fill="#E6E7E8" d="M156.825,497.861l20.484-12.427c0.48-0.291,0.634-0.922,0.343-1.401
		l-14.566-24.011c-0.291-0.479-0.922-0.635-1.402-0.344l-19.665,11.93c-0.93,0.564-1.23,1.788-0.665,2.72l14.069,23.19
		C155.714,497.999,156.345,498.152,156.825,497.861"/>
	<path clip-path="url(#SVGID_6_)" fill="#E6E7E8" d="M193.075,476.358l17.883-10.85c0.941-0.569,1.243-1.807,0.673-2.747
		l-11.862-23.409c-0.571-0.94-1.807-1.242-2.747-0.673l-19.594,11.887c-0.94,0.57-1.243,1.807-0.672,2.748l13.572,22.37
		C190.897,476.625,192.134,476.928,193.075,476.358"/>
	<path clip-path="url(#SVGID_6_)" fill="#E6E7E8" d="M227.001,455.483l18.311-11.107c0.94-0.571,1.243-1.808,0.672-2.748
		l-13.777-22.71c-0.571-0.94-1.807-1.243-2.747-0.672l-18.311,11.107c-0.94,0.57-1.243,1.808-0.673,2.747l13.778,22.71
		C224.824,455.751,226.062,456.054,227.001,455.483"/>
	<path clip-path="url(#SVGID_6_)" fill="#E6E7E8" d="M260.986,434.866l20.021-12.146c0.94-0.57,1.243-1.806,0.672-2.747
		l-13.766-22.692c-0.571-0.94-1.807-1.242-2.747-0.673l-20.021,12.146c-0.941,0.569-1.243,1.807-0.673,2.747l13.767,22.691
		C258.81,435.134,260.046,435.437,260.986,434.866"/>
	<path clip-path="url(#SVGID_6_)" fill="#E6E7E8" d="M295.399,413.99l19.807-12.017c0.94-0.569,1.243-1.807,0.672-2.747
		l-13.885-22.889c-0.57-0.939-1.807-1.243-2.747-0.672l-19.807,12.016c-0.94,0.57-1.243,1.808-0.673,2.747l13.886,22.889
		C293.222,414.257,294.459,414.56,295.399,413.99"/>
	<path clip-path="url(#SVGID_6_)" fill="#E6E7E8" d="M331.664,391.989l19.094-11.584c0.941-0.569,1.244-1.807,0.673-2.746
		l-13.842-22.817c-0.571-0.941-1.807-1.243-2.747-0.673l-19.095,11.584c-0.94,0.57-1.243,1.807-0.672,2.747l13.842,22.816
		C329.487,392.257,330.724,392.56,331.664,391.989"/>
	<path clip-path="url(#SVGID_6_)" fill="#E6E7E8" d="M365.418,370.83l19.308-11.713c0.941-0.57,1.243-1.807,0.673-2.748
		l-13.561-22.354c-0.571-0.94-1.807-1.243-2.748-0.672l-19.308,11.713c-0.94,0.571-1.243,1.807-0.672,2.747l13.561,22.354
		C363.241,371.098,364.478,371.401,365.418,370.83"/>
	<path clip-path="url(#SVGID_6_)" fill="#E6E7E8" d="M399.76,349.997l19.379-11.757c0.94-0.57,1.244-1.806,0.673-2.747
		l-13.453-22.176c-0.571-0.94-1.807-1.243-2.747-0.672l-19.38,11.756c-0.94,0.57-1.243,1.807-0.672,2.748l13.453,22.175
		C397.582,350.264,398.819,350.568,399.76,349.997"/>
	<path clip-path="url(#SVGID_6_)" fill="#E6E7E8" d="M434.956,328.645l19.237-11.67c0.939-0.571,1.242-1.807,0.672-2.747
		l-13.518-22.283c-0.57-0.941-1.807-1.243-2.748-0.673l-19.236,11.67c-0.94,0.571-1.243,1.807-0.673,2.748l13.519,22.282
		C432.779,328.913,434.016,329.215,434.956,328.645"/>
	<path clip-path="url(#SVGID_6_)" fill="#E6E7E8" d="M467.837,308.697l21.231-12.88c1.038-0.63,1.372-1.995,0.742-3.034
		l-14.177-23.369c-0.107-0.176-0.338-0.233-0.515-0.126l-24.136,14.641c-0.304,0.185-0.4,0.584-0.217,0.888l14.037,23.137
		C465.434,308.993,466.799,309.327,467.837,308.697"/>
	<path clip-path="url(#SVGID_6_)" fill="#E6E7E8" d="M501.613,287.817l22.729-13.788c0.939-0.571,1.242-1.807,0.673-2.747
		l-13.237-21.82c-0.571-0.94-1.807-1.243-2.748-0.673l-22.728,13.788c-0.94,0.571-1.243,1.807-0.673,2.748l13.237,21.819
		C499.437,288.084,500.674,288.388,501.613,287.817"/>
	<path clip-path="url(#SVGID_6_)" fill="#E6E7E8" d="M602.029,228.167l-64.372,39.052c-0.784,0.475-1.814,0.223-2.29-0.561
		l-14.438-23.918c-0.272-0.451,0.118-1.119,0.569-1.393l66.759-40.499c0.451-0.274,1.043-0.129,1.316,0.322l13.478,22.819
		C603.92,225.418,603.459,227.298,602.029,228.167"/>
	<path clip-path="url(#SVGID_6_)" fill="#E6E7E8" d="M114.746,570.077l62.266-37.774c0.94-0.57,1.243-1.807,0.673-2.747
		l-11.689-23.124c-0.571-0.941-1.807-1.244-2.748-0.673l-63.121,38.293c-0.94,0.57-1.243,1.806-0.672,2.747l12.544,22.604
		C112.569,570.344,113.806,570.647,114.746,570.077"/>
	<path clip-path="url(#SVGID_6_)" fill="#E6E7E8" d="M194.482,523.263l19.7-11.951c0.94-0.57,1.243-1.807,0.673-2.747
		l-14.091-23.227c-0.571-0.941-1.807-1.243-2.747-0.673l-19.7,11.951c-0.941,0.57-1.243,1.807-0.673,2.747l14.091,23.227
		C192.305,523.531,193.542,523.834,194.482,523.263"/>
	<path clip-path="url(#SVGID_6_)" fill="#E6E7E8" d="M250.02,489.571l-20.947,12.707c-0.94,0.571-2.177,0.269-2.747-0.672
		l-14.091-23.227c-0.57-0.94-0.268-2.178,0.673-2.747l20.947-12.708c0.94-0.57,2.176-0.269,2.747,0.673l14.091,23.227
		C251.263,487.764,250.96,489,250.02,489.571"/>
	<path clip-path="url(#SVGID_6_)" fill="#E6E7E8" d="M286.428,467.484l-21.659,13.141c-0.706,0.428-1.633,0.201-2.061-0.505
		l-14.609-24.081c-0.428-0.706-0.201-1.633,0.504-2.062l21.66-13.14c0.705-0.428,1.632-0.201,2.06,0.505l14.609,24.082
		C287.359,466.129,287.133,467.056,286.428,467.484"/>
	<path clip-path="url(#SVGID_6_)" fill="#E6E7E8" d="M320.84,446.608l-22.728,13.788c-0.705,0.428-1.633,0.201-2.06-0.504
		l-14.61-24.082c-0.428-0.705-0.201-1.633,0.505-2.062l22.728-13.788c0.705-0.428,1.632-0.2,2.06,0.506l14.609,24.081
		C321.772,445.252,321.545,446.18,320.84,446.608"/>
	<path clip-path="url(#SVGID_6_)" fill="#E6E7E8" d="M355.36,425.667l-22.158,13.441c-0.705,0.429-1.633,0.201-2.061-0.504
		l-14.609-24.082c-0.428-0.705-0.201-1.632,0.505-2.06l22.158-13.443c0.705-0.428,1.632-0.201,2.06,0.505l14.609,24.082
		C356.292,424.311,356.065,425.239,355.36,425.667"/>
	<path clip-path="url(#SVGID_6_)" fill="#E6E7E8" d="M388.983,405.659l-21.25,12.891c-0.705,0.428-1.632,0.201-2.06-0.504
		l-14.782-24.367c-0.428-0.705-0.201-1.633,0.504-2.06l21.25-12.893c0.705-0.428,1.632-0.201,2.06,0.505l14.782,24.367
		C389.916,404.303,389.688,405.23,388.983,405.659"/>
	<path clip-path="url(#SVGID_6_)" fill="#E6E7E8" d="M424.358,384.198l-21.393,12.979c-0.706,0.428-1.633,0.201-2.061-0.505
		l-14.782-24.367c-0.428-0.705-0.201-1.632,0.505-2.06l21.392-12.979c0.705-0.428,1.633-0.201,2.061,0.505l14.782,24.367
		C425.29,382.843,425.063,383.77,424.358,384.198"/>
	<path clip-path="url(#SVGID_6_)" fill="#E6E7E8" d="M458.379,363.559l-21.695,13.161c-0.705,0.428-1.632,0.201-2.06-0.504
		l-14.783-24.367c-0.427-0.705-0.2-1.632,0.505-2.06l21.695-13.162c0.705-0.428,1.632-0.201,2.06,0.505l14.782,24.367
		C459.311,362.205,459.084,363.131,458.379,363.559"/>
	<path clip-path="url(#SVGID_6_)" fill="#E6E7E8" d="M494.074,341.905l-20.537,12.459c-0.706,0.428-1.633,0.201-2.062-0.505
		l-14.781-24.366c-0.429-0.706-0.201-1.633,0.505-2.061l20.537-12.459c0.704-0.428,1.632-0.201,2.06,0.505l14.782,24.367
		C495.006,340.55,494.779,341.477,494.074,341.905"/>
	<path clip-path="url(#SVGID_6_)" fill="#E6E7E8" d="M529.163,320.618l-19.932,12.092c-0.705,0.427-1.632,0.2-2.06-0.505
		l-14.782-24.367c-0.428-0.705-0.201-1.632,0.504-2.06l19.932-12.092c0.705-0.428,1.632-0.201,2.061,0.505l14.782,24.368
		C530.096,319.262,529.868,320.19,529.163,320.618"/>
	<path clip-path="url(#SVGID_6_)" fill="#E6E7E8" d="M626.631,261.489l-86.553,52.507c-0.705,0.428-1.632,0.201-2.06-0.505
		l-14.782-24.366c-0.428-0.706-0.201-1.633,0.504-2.061l86.552-52.507c0.705-0.428,1.632-0.201,2.061,0.505l14.782,24.367
		C627.563,260.134,627.335,261.061,626.631,261.489"/>
	<path clip-path="url(#SVGID_6_)" fill="#E6E7E8" d="M147.355,562.77c0.812-0.493,1.889-0.11,2.255,0.802l12.164,25.051
		c0.309,0.769,0.03,1.635-0.659,2.042l-27.431,16.292c-1.158,0.688-2.679,0.188-3.269-1.074l-11.443-23.506
		c-0.509-1.045-0.138-2.305,0.856-2.906L147.355,562.77z"/>
	<path clip-path="url(#SVGID_6_)" fill="#E6E7E8" d="M177.1,580.968l30.067-18.24c0.705-0.428,0.932-1.355,0.504-2.06
		l-13.531-24.233c-0.428-0.706-1.355-0.933-2.061-0.505l-30.066,18.24c-0.706,0.428-0.933,1.354-0.505,2.061l13.532,24.233
		C175.467,581.169,176.395,581.396,177.1,580.968"/>
	<path clip-path="url(#SVGID_6_)" fill="#E6E7E8" d="M247.623,538.185l-26.848,16.288c-0.706,0.427-1.633,0.2-2.061-0.505
		l-12.472-22.487c-1.01-1.666-0.474-3.855,1.191-4.865l27.608-16.749c0.706-0.428,1.633-0.201,2.061,0.504l12.011,21.729
		C250.377,534.182,249.707,536.921,247.623,538.185"/>
	<path clip-path="url(#SVGID_6_)" fill="#E6E7E8" d="M458.728,373.875L245.545,503.348c-1.234,0.749-1.632,2.371-0.883,3.606
		l12.739,23.689c0.428,0.705,1.355,0.933,2.061,0.505l213.82-129.861c1.29-0.782,1.705-2.479,0.922-3.769l-13.417-23.141
		C460.36,373.673,459.433,373.447,458.728,373.875"/>
	<path clip-path="url(#SVGID_6_)" fill="#E6E7E8" d="M485.299,394.598l29.283-17.765c0.704-0.427,0.932-1.355,0.504-2.061
		l-14.848-24.474c-0.428-0.705-1.354-0.932-2.06-0.504l-29.283,17.764c-0.705,0.429-0.932,1.356-0.504,2.062l14.847,24.474
		C483.666,394.799,484.594,395.026,485.299,394.598"/>
	<path clip-path="url(#SVGID_6_)" fill="#E6E7E8" d="M558.52,350.178l-28.977,17.579c-0.705,0.428-1.632,0.201-2.06-0.505
		l-14.815-24.42c-0.427-0.705-0.2-1.632,0.505-2.061l28.977-17.579c0.706-0.428,1.633-0.2,2.061,0.505l14.814,24.421
		C559.452,348.824,559.225,349.75,558.52,350.178"/>
	<path clip-path="url(#SVGID_6_)" fill="#E6E7E8" d="M602.644,323.411l-29.39,17.829c-0.705,0.428-1.632,0.201-2.061-0.504
		l-14.771-24.35c-0.428-0.705-0.2-1.633,0.505-2.06l29.39-17.83c0.705-0.428,1.632-0.201,2.061,0.505l14.771,24.349
		C603.575,322.055,603.349,322.983,602.644,323.411"/>
	<path clip-path="url(#SVGID_6_)" fill="#E6E7E8" d="M647.896,296.543l-29.068,17.635c-0.705,0.428-1.634,0.201-2.062-0.505
		l-14.998-24.723c-0.428-0.705-0.201-1.632,0.505-2.06l29.069-17.635c0.705-0.428,1.632-0.201,2.061,0.505l14.997,24.723
		C648.828,295.188,648.601,296.115,647.896,296.543"/>
	<path clip-path="url(#SVGID_6_)" fill="#E6E7E8" d="M691.444,268.955l-18.597,11.281c-1.881,1.141-4.353,0.536-5.494-1.345
		l-13.183-21.731c-0.428-0.705-0.201-1.632,0.504-2.06l20.733-12.578c0.706-0.428,1.633-0.201,2.061,0.505l14.479,23.868
		C692.376,267.6,692.148,268.527,691.444,268.955"/>
	<path clip-path="url(#SVGID_6_)" fill="#E6E7E8" d="M728.101,246.716l-19.485,11.821c-1.881,1.141-4.354,0.536-5.495-1.345
		l-13.183-21.73c-0.429-0.706-0.201-1.633,0.505-2.061l21.623-13.118c0.706-0.428,1.633-0.201,2.061,0.505l14.479,23.868
		C729.033,245.361,728.806,246.289,728.101,246.716"/>
	<path clip-path="url(#SVGID_6_)" fill="#E6E7E8" d="M706.821,213.084l-19.13,11.605c-2.116,1.284-4.898,0.603-6.182-1.513
		l-13.15-21.677c-0.393-0.647-0.185-1.497,0.462-1.889l21.802-13.226c0.646-0.392,1.497-0.184,1.889,0.462l14.771,24.349
		C707.676,211.843,707.468,212.693,706.821,213.084"/>
	<path clip-path="url(#SVGID_6_)" fill="#E6E7E8" d="M764.295,224.759l-20.626,12.513c-0.706,0.428-1.633,0.201-2.062-0.504
		l-15.334-23.35c-0.428-0.705-0.201-1.632,0.504-2.06l20.626-12.513c0.706-0.428,1.634-0.201,2.062,0.504l15.334,23.35
		C765.227,223.404,765,224.332,764.295,224.759"/>
	<path clip-path="url(#SVGID_6_)" fill="#E6E7E8" d="M205,310.687l18.596-11.281c0.705-0.428,0.932-1.355,0.504-2.061
		l-13.658-22.514c-0.571-0.94-1.807-1.243-2.748-0.673l-18.292,11.098c-0.637,0.386-0.842,1.223-0.456,1.86l13.994,23.067
		C203.367,310.888,204.295,311.115,205,310.687"/>
	<path clip-path="url(#SVGID_6_)" fill="#E6E7E8" d="M255.55,280.021l18.596-11.281c0.705-0.428,0.932-1.355,0.504-2.061
		l-13.658-22.514c-0.571-0.94-1.807-1.243-2.748-0.672l-17.74,10.762c-0.941,0.571-1.243,1.807-0.673,2.747l13.659,22.515
		C253.917,280.221,254.846,280.448,255.55,280.021"/>
	<path clip-path="url(#SVGID_6_)" fill="#E6E7E8" d="M290.177,259.014l18.596-11.281c0.705-0.428,0.932-1.355,0.504-2.061
		l-13.658-22.514c-0.571-0.94-1.807-1.243-2.748-0.673l-17.74,10.763c-0.941,0.571-1.243,1.807-0.673,2.747l13.659,22.515
		C288.544,259.215,289.472,259.442,290.177,259.014"/>
	<path clip-path="url(#SVGID_6_)" fill="#E6E7E8" d="M324.162,238.397l18.596-11.281c0.705-0.428,0.932-1.355,0.504-2.061
		l-13.658-22.514c-0.571-0.94-1.807-1.243-2.748-0.672l-17.74,10.762c-0.941,0.571-1.243,1.807-0.673,2.747l13.659,22.515
		C322.529,238.598,323.457,238.825,324.162,238.397"/>
	<path clip-path="url(#SVGID_6_)" fill="#E6E7E8" d="M359.002,217.261l18.596-11.281c0.705-0.428,0.932-1.355,0.504-2.061
		l-13.918-22.941c-0.427-0.706-1.355-0.933-2.06-0.505l-18.596,11.281c-0.705,0.428-0.932,1.355-0.504,2.061l13.918,22.942
		C357.369,217.462,358.297,217.689,359.002,217.261"/>
	<path clip-path="url(#SVGID_6_)" fill="#E6E7E8" d="M410.363,186.103l18.596-11.281c0.705-0.428,0.932-1.355,0.504-2.061
		l-13.999-23.075c-0.428-0.705-1.354-0.932-2.06-0.504l-18.596,11.281c-0.705,0.428-0.932,1.355-0.504,2.06l13.999,23.076
		C408.73,186.304,409.658,186.531,410.363,186.103"/>
	<path clip-path="url(#SVGID_6_)" fill="#E6E7E8" d="M444.606,165.329l18.596-11.281c0.705-0.428,0.933-1.355,0.504-2.061
		l-13.999-23.075c-0.428-0.705-1.354-0.932-2.06-0.504l-18.596,11.281c-0.705,0.428-0.933,1.355-0.504,2.06l13.999,23.076
		C442.974,165.53,443.901,165.757,444.606,165.329"/>
	<path clip-path="url(#SVGID_6_)" fill="#E6E7E8" d="M479.34,144.258l18.596-11.281c0.705-0.428,0.932-1.355,0.504-2.061
		l-13.999-23.075c-0.428-0.705-1.354-0.932-2.06-0.504l-18.596,11.281c-0.705,0.428-0.933,1.355-0.505,2.06l13.999,23.076
		C477.707,144.459,478.635,144.686,479.34,144.258"/>
	<path clip-path="url(#SVGID_6_)" fill="#E6E7E8" d="M514.287,123.057l18.596-11.281c0.705-0.428,0.932-1.355,0.504-2.061
		L519.388,86.64c-0.428-0.705-1.355-0.932-2.06-0.504l-18.597,11.281c-0.705,0.428-0.932,1.355-0.504,2.06l13.999,23.076
		C512.653,123.258,513.582,123.485,514.287,123.057"/>
	<path clip-path="url(#SVGID_6_)" fill="#E6E7E8" d="M556.821,97.253l19.345-11.735c0.705-0.428,0.932-1.355,0.504-2.06
		L563.52,61.78c-0.85-1.4-2.691-1.851-4.093-1.001l-18.079,10.967c-0.705,0.428-0.932,1.355-0.504,2.061l13.918,22.942
		C555.188,97.454,556.117,97.681,556.821,97.253"/>
	<path clip-path="url(#SVGID_6_)" fill="#E6E7E8" d="M586.34,142.055l19.344-11.735c0.705-0.428,0.933-1.355,0.504-2.06
		l-13.149-21.678c-0.851-1.401-2.692-1.851-4.093-1.001l-18.079,10.967c-0.705,0.428-0.933,1.355-0.504,2.061l13.918,22.942
		C584.707,142.256,585.635,142.483,586.34,142.055"/>
	<path clip-path="url(#SVGID_6_)" fill="#E6E7E8" d="M620.325,121.438l19.344-11.735c0.705-0.428,0.933-1.355,0.504-2.06
		l-13.149-21.678c-0.851-1.4-2.692-1.851-4.094-1.001l-18.078,10.967c-0.705,0.428-0.933,1.355-0.504,2.061l13.918,22.942
		C618.692,121.639,619.62,121.866,620.325,121.438"/>
	<path clip-path="url(#SVGID_6_)" fill="#E6E7E8" d="M655.807,99.913l19.344-11.735c0.705-0.428,0.932-1.355,0.504-2.06
		l-13.149-21.678c-0.851-1.4-2.692-1.851-4.094-1.001l-18.079,10.967c-0.704,0.428-0.932,1.355-0.504,2.061l13.918,22.942
		C654.174,100.114,655.102,100.341,655.807,99.913"/>
	<path clip-path="url(#SVGID_6_)" fill="#E6E7E8" d="M677.965,134.51l19.344-11.735c0.705-0.428,0.933-1.355,0.504-2.06
		l-13.149-21.678c-0.851-1.4-2.692-1.851-4.093-1.001l-18.079,10.967c-0.705,0.428-0.933,1.355-0.504,2.061l13.918,22.942
		C676.332,134.711,677.26,134.938,677.965,134.51"/>
	<path clip-path="url(#SVGID_6_)" fill="#E6E7E8" d="M641.629,156.554l19.344-11.735c0.705-0.428,0.932-1.355,0.504-2.06
		l-13.15-21.678c-0.85-1.4-2.691-1.851-4.093-1.001l-18.079,10.967c-0.705,0.428-0.932,1.355-0.504,2.061l13.918,22.942
		C639.995,156.755,640.924,156.982,641.629,156.554"/>
	<path clip-path="url(#SVGID_6_)" fill="#E6E7E8" d="M606.788,177.69l19.345-11.735c0.704-0.428,0.932-1.355,0.504-2.06
		l-13.15-21.678c-0.85-1.4-2.692-1.851-4.093-1.001l-18.079,10.967c-0.705,0.428-0.932,1.355-0.504,2.061l13.918,22.942
		C605.155,177.891,606.083,178.118,606.788,177.69"/>
	<path clip-path="url(#SVGID_6_)" fill="#E6E7E8" d="M591.662,76.117l19.344-11.735c0.705-0.428,0.932-1.355,0.504-2.06
		L597.592,39.38c-0.427-0.706-1.355-0.933-2.06-0.505L576.188,50.61c-0.705,0.428-0.932,1.355-0.504,2.061l13.918,22.942
		C590.028,76.318,590.957,76.545,591.662,76.117"/>
	<path clip-path="url(#SVGID_6_)" fill="#E6E7E8" d="M626.822,54.787l19.345-11.735c0.704-0.428,0.932-1.355,0.504-2.06
		L632.753,18.05c-0.428-0.706-1.355-0.933-2.061-0.505L611.349,29.28c-0.705,0.428-0.932,1.355-0.504,2.061l13.918,22.942
		C625.189,54.988,626.117,55.215,626.822,54.787"/>
	<path clip-path="url(#SVGID_6_)" fill="#E6E7E8" d="M169.732,332.083l18.596-11.281c0.705-0.428,0.932-1.355,0.504-2.062
		l-13.961-23.013c-0.404-0.666-1.28-0.88-1.946-0.476l-18.738,11.368c-0.666,0.404-0.881,1.279-0.476,1.946l13.961,23.013
		C168.1,332.284,169.028,332.51,169.732,332.083"/>
	<path clip-path="url(#SVGID_6_)" fill="#E6E7E8" d="M135.854,352.634l18.596-11.28c0.705-0.429,0.932-1.355,0.504-2.062
		l-13.918-22.941c-0.428-0.706-1.355-0.933-2.06-0.505l-18.596,11.281c-0.705,0.428-0.932,1.355-0.504,2.062l13.918,22.941
		C134.221,352.835,135.149,353.063,135.854,352.634"/>
	<path clip-path="url(#SVGID_6_)" fill="#E6E7E8" d="M101.442,373.511l18.596-11.281c0.705-0.428,0.932-1.354,0.504-2.061
		l-13.063-23.46c-0.428-0.705-1.355-0.933-2.06-0.504l-18.133,11c-1.43,0.866-1.89,2.748-1.023,4.178l13.119,21.624
		C99.809,373.712,100.737,373.939,101.442,373.511"/>
	<path clip-path="url(#SVGID_6_)" fill="#E6E7E8" d="M18.178,388.934l17.794-10.795c0.705-0.428,1.633-0.201,2.061,0.505
		L51.292,400.5c0.85,1.4,0.399,3.242-1.002,4.092l-18.293,11.098c-1.156,0.701-2.675,0.329-3.376-0.826l-11.808-20.349
		C15.653,392.604,16.268,390.093,18.178,388.934"/>
</g>
<g id="Brush">
	<defs>
		<rect id="SVGID_7_" width="792.807" height="633.566"/>
	</defs>
	<clipPath id="SVGID_8_">
		<use xlink:href="#SVGID_7_"  overflow="visible"/>
	</clipPath>
	<path clip-path="url(#SVGID_8_)" fill="#808285" d="M206.398,90.653c-4.06-17.373-34.727-45.761-49.494-60.1
		c-14.767-14.339-18.263-21.798-18.263-21.798c-0.545,1.222-3.003,2.781-3.111,4.091c-4.817,58.118,40.577,105.11,40.577,105.11
		s0.997-4.903,13.617-15.476C202.04,92.16,206.398,90.653,206.398,90.653"/>
	<path clip-path="url(#SVGID_8_)" fill="none" stroke="#000000" stroke-width="3" stroke-miterlimit="10" d="M206.398,90.653
		c-4.06-17.373-34.727-45.761-49.494-60.1c-14.767-14.339-18.263-21.798-18.263-21.798c-0.545,1.222-3.003,2.781-3.111,4.091
		c-4.817,58.118,40.577,105.11,40.577,105.11s0.997-4.903,13.617-15.476C202.04,92.16,206.398,90.653,206.398,90.653z"/>
	<path clip-path="url(#SVGID_8_)" fill="#FFFEF7" d="M175.701,52.333c0,0-10.597-5.75-12.097-2s-1.5,9-5.5,6.5
		s-8.25-8.619-7.75-3.56c0.5,5.06,4.92,24.56-0.04,16.56s-13.319-28.275-13.319-28.275V10.693l10.109,12.139L175.701,52.333z"/>
	<path clip-path="url(#SVGID_8_)" d="M206.213,90.567c-0.617-2.114-1.525-4.059-2.563-5.972c-1.076-1.931-2.213-3.826-3.483-5.639
		c-2.5-3.651-5.316-7.084-8.218-10.432c-1.469-1.662-2.95-3.311-4.473-4.925c-1.507-1.627-3.021-3.249-4.559-4.85
		c-3.074-3.203-6.229-6.333-9.421-9.428c-3.192-3.095-6.433-6.143-9.693-9.178l-4.906-4.546l-2.454-2.282l-2.425-2.342
		c-1.587-1.535-3.219-3.18-4.773-4.81c-1.569-1.63-3.096-3.308-4.591-5.022c-1.488-1.723-2.951-3.473-4.337-5.313
		c-0.692-0.922-1.374-1.855-2.028-2.828c-0.328-0.484-0.65-0.98-0.966-1.488c-0.326-0.543-0.598-0.971-0.957-1.691l4.57-0.043
		c-0.325,0.695-0.634,1.046-0.911,1.391c-0.279,0.33-0.526,0.58-0.765,0.829c-0.463,0.472-0.878,0.887-1.124,1.196
		c-0.119,0.145-0.17,0.261-0.143,0.2c0.019-0.031,0.025-0.058,0.035-0.101c0.028-0.073,0.042-0.153,0.042-0.231l-0.019,0.393
		l-0.094,1.887c-0.046,1.247-0.163,2.541-0.15,3.749l0.007,3.639c-0.021,1.207,0.102,2.45,0.145,3.673
		c0.061,1.228,0.107,2.456,0.251,3.679l0.36,3.671l0.483,3.66c0.134,1.223,0.367,2.434,0.575,3.648
		c0.22,1.212,0.392,2.433,0.676,3.634l0.78,3.617l0.919,3.588c0.287,1.201,0.664,2.379,1.01,3.566
		c0.35,1.185,0.691,2.374,1.101,3.541c0.399,1.171,0.772,2.351,1.192,3.516l1.294,3.482c0.917,2.301,1.831,4.606,2.859,6.864
		c0.496,1.137,1.003,2.269,1.549,3.385c0.541,1.117,1.048,2.25,1.625,3.35c1.107,2.224,2.282,4.413,3.478,6.592
		c0.619,1.078,1.234,2.158,1.83,3.25l1.876,3.227l1.943,3.189l2.011,3.149c1.373,2.079,2.766,4.147,4.222,6.17
		c1.443,2.033,2.945,4.023,4.481,5.985c1.534,1.949,3.134,3.902,4.757,5.703l-2.656,0.774c0.12-0.462,0.203-0.623,0.313-0.889
		c0.104-0.237,0.212-0.465,0.326-0.676c0.224-0.437,0.466-0.836,0.716-1.229c0.496-0.788,1.038-1.511,1.593-2.217
		c0.558-0.703,1.128-1.39,1.74-2.029c0.595-0.657,1.219-1.277,1.84-1.9c1.252-1.232,2.547-2.406,3.864-3.546
		c1.32-1.136,2.669-2.231,4.029-3.308c1.368-1.066,2.725-2.109,4.121-3.146c1.389-1.033,2.792-2.042,4.214-3.028
		c1.42-0.988,2.885-1.915,4.371-2.804c0.747-0.44,1.497-0.872,2.267-1.272C204.699,91.222,205.427,90.858,206.213,90.567
		 M206.447,90.794c-0.77,0.312-1.529,0.742-2.266,1.168c-0.741,0.429-1.464,0.892-2.182,1.362c-1.433,0.944-2.833,1.941-4.214,2.964
		c-2.758,2.052-5.431,4.212-8.066,6.423c-1.309,1.113-2.605,2.242-3.867,3.406c-1.259,1.168-2.49,2.365-3.671,3.61
		c-0.585,0.628-1.172,1.252-1.725,1.907c-0.568,0.642-1.101,1.313-1.62,1.993c-0.515,0.682-1.013,1.379-1.452,2.109
		c-0.43,0.721-0.864,1.494-1.085,2.258l-0.1,0.344l-0.233-0.247c-1.737-1.841-3.374-3.757-4.979-5.704
		c-1.599-1.952-3.163-3.931-4.667-5.956c-1.519-2.014-2.973-4.075-4.409-6.148l-2.107-3.143l-2.039-3.186l-1.974-3.229l-1.903-3.27
		c-1.231-2.201-2.442-4.415-3.584-6.664c-0.595-1.113-1.121-2.261-1.68-3.391c-0.563-1.129-1.088-2.276-1.602-3.429
		c-1.063-2.288-2.014-4.627-2.966-6.963l-1.348-3.538c-0.437-1.183-0.828-2.384-1.244-3.575c-0.427-1.188-0.786-2.398-1.153-3.606
		c-0.364-1.208-0.758-2.408-1.062-3.634l-0.968-3.661l-0.829-3.695c-0.3-1.227-0.487-2.477-0.723-3.718
		c-0.223-1.242-0.471-2.481-0.62-3.736l-0.515-3.753l-0.338-3.773c-0.138-1.257-0.175-2.519-0.228-3.781
		c-0.035-1.263-0.149-2.522-0.118-3.787l0.026-3.794c0.001-1.266,0.126-2.517,0.183-3.777l0.109-1.886l0.029-0.48
		c0.025-0.193,0.074-0.374,0.147-0.538c0.147-0.324,0.343-0.601,0.549-0.856c0.808-1.002,1.904-1.781,2.441-2.775l0.251-0.464
		l0.24,0.459c1.01,1.933,2.305,3.774,3.619,5.557c1.325,1.786,2.739,3.507,4.181,5.203c1.451,1.688,2.936,3.348,4.469,4.965
		c1.525,1.625,3.077,3.216,4.669,4.782c1.578,1.579,3.19,3.113,4.792,4.669l4.809,4.656c3.199,3.112,6.382,6.241,9.518,9.418
		c6.271,6.352,12.392,12.867,18.049,19.784c2.804,3.475,5.518,7.034,7.912,10.813c1.212,1.878,2.315,3.83,3.299,5.84
		c0.972,2.003,1.833,4.117,2.341,6.286l0.03,0.13L206.447,90.794z"/>
	<path clip-path="url(#SVGID_8_)" fill="#A7A9AC" d="M281.486,172.401l0.013-1.201c0.002-0.228-0.077-0.443-0.227-0.61
		c-20.194-22.447-48.582-52.253-48.582-52.253c-13.042-8.474-26.648-29.113-25.409-27.635c-0.244-0.29-0.883-0.049-0.883-0.049
		s-4.357,1.507-16.674,11.826c-12.62,10.574-13.617,15.476-13.617,15.476s-0.374,0.657-0.406,0.954
		c-0.031,0.296,23.803,27.314,23.803,27.314c19.854,23.813,39.786,47.521,45.359,54.146c0.848,1.007,2.382,1.103,3.436,0.221
		c0,0,3.538-4.091,15.141-14.61C276.54,174.104,281.486,172.401,281.486,172.401"/>
	<path clip-path="url(#SVGID_8_)" fill="none" stroke="#000000" stroke-width="3" stroke-miterlimit="10" d="M281.486,172.401
		l0.013-1.201c0.002-0.228-0.077-0.443-0.227-0.61c-20.194-22.447-48.582-52.253-48.582-52.253
		c-13.042-8.474-26.648-29.113-25.409-27.635c-0.244-0.29-0.883-0.049-0.883-0.049s-4.357,1.507-16.674,11.826
		c-12.62,10.574-13.617,15.476-13.617,15.476s-0.374,0.657-0.406,0.954c-0.031,0.296,23.803,27.314,23.803,27.314
		c19.854,23.813,39.786,47.521,45.359,54.146c0.848,1.007,2.382,1.103,3.436,0.221c0,0,3.538-4.091,15.141-14.61
		C276.54,174.104,281.486,172.401,281.486,172.401z"/>
	<path clip-path="url(#SVGID_8_)" fill="#D1D3D4" d="M185.037,131.078l1.749,2.087c0.641,0.766,0.778,1.052,1.445,0.493
		c0,0,4.003-7.201,13.607-15.248c9.133-7.652,16.955-11.937,16.955-11.937c0.667-0.559,0.394-1.241-0.247-2.006l-1.749-2.087
		c-0.641-0.766-1.072-1.28-2.085-0.777c0,0-5.226,1.53-17.224,11.273c-10.649,8.648-13.337,15.912-13.337,15.912
		C183.727,129.517,184.396,130.313,185.037,131.078"/>
	<path clip-path="url(#SVGID_8_)" fill="none" stroke="#000000" stroke-miterlimit="10" d="M185.037,131.078l1.749,2.087
		c0.641,0.766,0.778,1.052,1.445,0.493c0,0,4.003-7.201,13.607-15.248c9.133-7.652,16.955-11.937,16.955-11.937
		c0.667-0.559,0.394-1.241-0.247-2.006l-1.749-2.087c-0.641-0.766-1.072-1.28-2.085-0.777c0,0-5.226,1.53-17.224,11.273
		c-10.649,8.648-13.337,15.912-13.337,15.912C183.727,129.517,184.396,130.313,185.037,131.078z"/>
	<path clip-path="url(#SVGID_8_)" fill="#D1D3D4" d="M193.871,141.622l1.749,2.087c0.641,0.766,0.776,1.054,1.469,0.473
		c0,0,4.233-7.394,14.212-15.755c9.49-7.95,17.574-12.455,17.574-12.455c0.693-0.581,0.427-1.269-0.215-2.034l-2.093-1.908
		c-0.843-0.656-1.112-0.85-2.403-0.687c0,0-4.745,1.414-17.206,11.545c-11.06,8.991-13.95,16.424-13.95,16.424
		C192.561,140.061,193.229,140.856,193.871,141.622"/>
	<path clip-path="url(#SVGID_8_)" fill="none" stroke="#000000" stroke-miterlimit="10" d="M193.871,141.622l1.749,2.087
		c0.641,0.766,0.776,1.054,1.469,0.473c0,0,4.233-7.394,14.212-15.755c9.49-7.95,17.574-12.455,17.574-12.455
		c0.693-0.581,0.427-1.269-0.215-2.034l-2.093-1.908c-0.843-0.656-1.112-0.85-2.403-0.687c0,0-4.745,1.414-17.206,11.545
		c-11.06,8.991-13.95,16.424-13.95,16.424C192.561,140.061,193.229,140.856,193.871,141.622z"/>
	<path clip-path="url(#SVGID_8_)" fill="#D1D3D4" d="M227.481,179.787l1.749,2.087c0.641,0.766,0.773,1.057,1.498,0.449
		c0,0,4.521-7.635,14.967-16.387c9.933-8.323,18.343-13.101,18.343-13.101c0.726-0.608,0.468-1.303-0.173-2.068l-1.749-2.087
		c-0.641-0.766-1.072-1.28-2.158-0.715c0,0-5.561,1.811-18.598,12.424c-11.571,9.42-14.712,17.063-14.712,17.063
		C226.171,178.227,226.84,179.021,227.481,179.787"/>
	<path clip-path="url(#SVGID_8_)" fill="none" stroke="#000000" stroke-miterlimit="10" d="M227.481,179.787l1.749,2.087
		c0.641,0.766,0.773,1.057,1.498,0.449c0,0,4.521-7.635,14.967-16.387c9.933-8.323,18.343-13.101,18.343-13.101
		c0.726-0.608,0.468-1.303-0.173-2.068l-1.749-2.087c-0.641-0.766-1.072-1.28-2.158-0.715c0,0-5.561,1.811-18.598,12.424
		c-11.571,9.42-14.712,17.063-14.712,17.063C226.171,178.227,226.84,179.021,227.481,179.787z"/>
	<path clip-path="url(#SVGID_8_)" fill="#BCBEC0" d="M618.491,573.052C428.116,336.695,296.503,188.827,281.685,172.258
		c-0.81-0.906-3.216-0.25-3.216-0.25s-7.061,2.809-16.627,10.833c-11.743,9.805-13.295,14.713-13.295,14.713
		s-0.933,2.238-0.183,3.152c65.343,79.677,305.244,331.27,356.617,383.881c52.937,48.944,15.631-7.974,13.695-11.267
		C618.621,573.226,618.56,573.138,618.491,573.052"/>
	<path clip-path="url(#SVGID_8_)" fill="none" stroke="#000000" stroke-width="3" stroke-miterlimit="10" d="M618.491,573.052
		C428.116,336.695,296.503,188.827,281.685,172.258c-0.81-0.906-3.216-0.25-3.216-0.25s-7.061,2.809-16.627,10.833
		c-11.743,9.805-13.295,14.713-13.295,14.713s-0.933,2.238-0.183,3.152c65.343,79.677,305.244,331.27,356.617,383.881
		c52.937,48.944,15.631-7.974,13.695-11.267C618.621,573.226,618.56,573.138,618.491,573.052z"/>
</g>
</svg>
