<svg version="1.1" id="Layer_1" xmlns="http://www.w3.org/2000/svg" xmlns:xlink="http://www.w3.org/1999/xlink" x="0px" y="0px"
	 viewBox="975 405 1890 1350" enable-background="new 975 405 1890 1350" xml:space="preserve">
<path fill="#fefceb" d="M1110,675h1620c74.52,0,135-60.48,135-135s-60.48-135-135-135H1110c-74.52,0-135,60.48-135,135S1035.48,675,1110,675z
	 M2730,945H1110c-74.52,0-135,60.48-135,135s60.48,135,135,135h1620c74.52,0,135-60.48,135-135S2804.52,945,2730,945z M2730,1485
	H1110c-74.52,0-135,60.48-135,135s60.48,135,135,135h1620c74.52,0,135-60.48,135-135S2804.52,1485,2730,1485z"/>
</svg>
